<?xml version="1.0" encoding="UTF-8" standalone="no"?>
<svg
   id="Layer_1"
   data-name="Layer 1"
   viewBox="0 0 24 24"
   width="512"
   height="512"
   version="1.1"
   sodipodi:docname="leaf_green.svg"
   inkscape:version="1.4.3 (0d15f75042, 2025-12-25)"
   xmlns:inkscape="http://www.inkscape.org/namespaces/inkscape"
   xmlns:sodipodi="http://sodipodi.sourceforge.net/DTD/sodipodi-0.dtd"
   xmlns="http://www.w3.org/2000/svg"
   xmlns:svg="http://www.w3.org/2000/svg">
  <defs
     id="defs1" />
  <sodipodi:namedview
     id="namedview1"
     pagecolor="#ffffff"
     bordercolor="#000000"
     borderopacity="0.25"
     inkscape:showpageshadow="2"
     inkscape:pageopacity="0.0"
     inkscape:pagecheckerboard="0"
     inkscape:deskcolor="#d1d1d1"
     inkscape:zoom="1.1318359"
     inkscape:cx="154.17429"
     inkscape:cy="212.48663"
     inkscape:window-width="2560"
     inkscape:window-height="1368"
     inkscape:window-x="0"
     inkscape:window-y="0"
     inkscape:window-maximized="1"
     inkscape:current-layer="Layer_1" />
  <path
     d="M23.119.872A2.985,2.985,0,0,0,20.714.015C17.921.285,8.528,1.448,4.9,5.072a9.931,9.931,0,0,0-.671,13.281l11.06-11.06a1,1,0,0,1,1.414,1.414L5.647,19.767A9.929,9.929,0,0,0,18.928,19.1c3.676-3.677,4.8-13.041,5.059-15.823A2.987,2.987,0,0,0,23.119.872ZM4.9,19.1q.358.357.743.671l-3.94,3.94A1,1,0,0,1,.293,22.293l3.94-3.94Q4.547,18.737,4.9,19.1Z"
     id="path1"
     style="fill:#008066;fill-opacity:1;stroke:#000000;stroke-opacity:1;stroke-width:0.234375;stroke-dasharray:none;stroke-linejoin:round" />
</svg>
