<?xml version="1.0" encoding="UTF-8" standalone="no"?>
<svg
   id="Layer_1"
   data-name="Layer 1"
   viewBox="0 0 24 24"
   version="1.1"
   sodipodi:docname="discovered.svg"
   inkscape:version="1.4.3 (0d15f75042, 2025-12-25)"
   xmlns:inkscape="http://www.inkscape.org/namespaces/inkscape"
   xmlns:sodipodi="http://sodipodi.sourceforge.net/DTD/sodipodi-0.dtd"
   xmlns="http://www.w3.org/2000/svg"
   xmlns:svg="http://www.w3.org/2000/svg">
  <defs
     id="defs1" />
  <sodipodi:namedview
     id="namedview1"
     pagecolor="#ffffff"
     bordercolor="#000000"
     borderopacity="0.25"
     inkscape:showpageshadow="2"
     inkscape:pageopacity="0.0"
     inkscape:pagecheckerboard="0"
     inkscape:deskcolor="#d1d1d1"
     inkscape:zoom="48.291667"
     inkscape:cx="11.989646"
     inkscape:cy="12"
     inkscape:window-width="2560"
     inkscape:window-height="1368"
     inkscape:window-x="0"
     inkscape:window-y="0"
     inkscape:window-maximized="1"
     inkscape:current-layer="Layer_1" />
  <path
     d="m9.493,20.25l-3.401,3.296c-.932.911-2.504.374-2.683-.917l-.218-1.568-1.765-.182c-1.344-.139-1.911-1.785-.939-2.723l2.306-2.223c.5,1.388,1.65,2.486,3.076,2.894.735.211,1.505.247,2.231.105.36.534.84.963,1.393,1.318Zm14.019-2.094l-2.306-2.223c-.5,1.388-1.65,2.486-3.076,2.894-.735.211-1.505.247-2.231.105-.36.534-.84.963-1.393,1.318l3.401,3.296c.932.911,2.504.374,2.683-.917l.218-1.568,1.765-.182c1.344-.139,1.911-1.785.939-2.723Zm-9.241-.387c-.233.361-.564.679-.994.918-.782.433-1.771.433-2.553,0-.431-.239-.761-.557-.994-.918-.416-.644-1.181-.987-1.929-.817-.428.097-.896.091-1.38-.048-.859-.246-1.559-.946-1.805-1.805-.139-.484-.145-.953-.048-1.382.17-.748-.173-1.513-.817-1.928-.362-.233-.679-.564-.918-.995-.219-.394-.325-.842-.323-1.289-.002-.447.105-.894.323-1.289.239-.431.557-.761.918-.995.644-.416.987-1.181.817-1.928-.097-.429-.091-.897.048-1.381.246-.859.946-1.559,1.805-1.805.484-.139.952-.145,1.38-.048.748.17,1.513-.172,1.929-.817.233-.361.563-.679.994-.918.782-.433,1.772-.433,2.553,0,.431.239.761.557.994.918.416.644,1.181.987,1.929.817.428-.097.896-.091,1.38.048.859.246,1.559.946,1.805,1.805.139.484.145.953.048,1.381-.17.748.173,1.513.817,1.928.362.233.679.564.918.995.219.394.325.842.323,1.289.002.447-.105.894-.323,1.289-.239.431-.557.761-.918.995-.644.416-.987,1.181-.817,1.928.097.429.091.897-.048,1.382-.246.859-.946,1.559-1.805,1.805-.484.139-.952.145-1.38.048-.748-.17-1.513.172-1.929.817Zm-1.271-11.323c0-.586-.35-1.109-.892-1.334-.539-.226-1.158-.102-1.573.312l-1.242,1.242c-.391.391-.391,1.023,0,1.414s1.023.391,1.414,0l.293-.293v6.213c0,.553.447,1,1,1s1-.447,1-1v-7.555Z"
     id="path1"
     style="fill:#d45500;fill-opacity:1;stroke:#000000;stroke-opacity:1;stroke-width:0.2;stroke-dasharray:none" />
</svg>
