<svg id="Layer_1" viewBox="0 0 24 24" xmlns="http://www.w3.org/2000/svg" data-name="Layer 1"><path d="m12.922 11.879c-.228-.685-1.027-1.052-1.697-.801-2.795 1.007-5.019 2.282-6.835 3.921h-.006c-1.883 0-3.383 1-4.383 2.415v1.586h1.999l.793.793-1 1 1.414 1.414 1-1 .793.793v2h1.586c1.414-1 2.386-2.5 2.386-4.35 1.622-1.793 2.951-4.106 3.949-6.874.106-.292.104-.614 0-.896zm-6.422 7.121c-.828 0-1.5-.672-1.5-1.5s.672-1.5 1.5-1.5 1.5.672 1.5 1.5-.672 1.5-1.5 1.5zm10.84-18.879c.825.139 1.606.402 2.324.773.212.317.336.697.336 1.106 0 1.103-.897 2-2 2s-2-.897-2-2c0-.87.562-1.605 1.34-1.879zm4.595 2.528c-.312 1.896-1.95 3.352-3.934 3.352-2.206 0-4-1.794-4-4 0-.671.182-1.295.475-1.851-3.688.712-6.475 3.954-6.475 7.851 0 .738.108 1.449.295 2.127.716-.33 1.459-.644 2.252-.93.806-.303 1.75-.258 2.564.13.799.382 1.417 1.071 1.699 1.893.256.72.253 1.513-.009 2.236-.283.785-.599 1.528-.932 2.248.679.188 1.392.296 2.131.296 4.418 0 8-3.582 8-8 0-2.061-.786-3.933-2.066-5.352zm-3.434 9.352c-.828 0-1.5-.672-1.5-1.5s.672-1.5 1.5-1.5 1.5.672 1.5 1.5-.672 1.5-1.5 1.5z"/></svg>