<svg id="Layer_1" viewBox="0 0 24 24" xmlns="http://www.w3.org/2000/svg" data-name="Layer 1"><path d="m5.8 10.24c.25-.09.51-.16.78-.2 1.27-.2 2.53.19 3.47 1.04l1.96 1.78 1.96-1.78c.94-.86 2.2-1.24 3.47-1.04.27.04.53.11.78.2.51-.97.8-2.07.8-3.24 0-3.87-3.13-7-7-7s-7 3.13-7 7c0 1.17.29 2.27.8 3.24zm9.76-5.58.63-.37c.51.78.81 1.71.81 2.71 0 .18-.03.35-.05.53l-1.01-.37c-.27-.1-.48-.33-.55-.61l-.23-.91c-.09-.38.07-.77.4-.97zm-3.74-2.64c-.1.15-.18.28-.25.39-.09.14-.09.31 0 .45l.52.87c.13.22.1.49-.08.67-.17.17-.42.21-.63.1l-.57-.29c-.14-.07-.31-.04-.43.07l-.34.34c-.18.18-.17.49.04.65l.94.74h.6c.26 0 .52.07.75.19l1.57.86c.24.13.34.43.22.68l-1.29 2.73c-.16.35-.53.56-.91.54-.52 0-.94-.42-.94-.94v-1.56l-.54-.54c-.29-.29-.46-.69-.46-1.1v-.85h-1.36c-.41 0-.79-.17-1.06-.48l-.24-.27c.69-1.84 2.43-3.16 4.49-3.23zm6.62 13.67-2.49 2.53c-.12-1.22-.67-2.38-1.59-3.21l-.87-.79 1.81-1.65c1.02-.92 2.67-.72 3.41.53.48.81.33 1.86-.27 2.59zm4.06-10.69c-.83 0-1.5.67-1.5 1.5v7.5h-.01c.05 1.02-.27 2.06-.96 2.89l-4.03 4.09v2.02c0 .55.45 1 1 1h3.31c.28 0 .55-.12.74-.33l.6-.65c1.52-1.66 2.36-3.82 2.36-6.07v-10.45c0-.83-.67-1.5-1.5-1.5zm-9.48 11.49-4.32-3.92c-1.02-.92-2.67-.72-3.41.53-.48.81-.33 1.86.27 2.59l2.55 2.57c.38.39.38 1.01 0 1.4-.39.39-1.02.39-1.41 0l-2.73-2.76c-.69-.83-1.01-1.87-.96-2.89h-.01v-7.5c0-.83-.67-1.5-1.5-1.5s-1.5.67-1.5 1.5v10.45c0 2.25.84 4.41 2.36 6.07l.6.65c.19.21.46.33.74.33h9.31c.55 0 1-.45 1-1v-4.29c0-.85-.36-1.65-.98-2.22z"/></svg>